<svg xmlns="http://www.w3.org/2000/svg" viewBox="0 0 414 414" style="enable-background:new 0 0 414 414;background-color:#add8e6" xml:space="preserve"><path class="transrg" style="opacity:.4;fill:none;stroke:#fff;stroke-width:2;stroke-miterlimit:10;enable-background:new" d="M84.2 85c31.3-31.5 74.7-51 122.7-51 95.5 0 173 77.5 173 173s-77.5 173-173 173c-47.8 0-91-19.4-122.3-50.7"/><path class="transrgwht" style="fill:none;stroke:#fff;stroke-width:2;stroke-miterlimit:10;stroke-dasharray:10,1000" d="M84.2 85c31.3-31.5 74.7-51 122.7-51 95.5 0 173 77.5 173 173s-77.5 173-173 173c-47.8 0-91-19.4-122.3-50.7"/><g class="dots-nav"><path class="dotsst dotsfill1" style="fill:#0092ff;opacity:1" d="M84 80c-3.3 0-6 2.7-6 6s2.7 6 6 6 6-2.7 6-6-3-6-6-6z"/><path class="dotsstro1" style="opacity:1;fill:none;stroke:#fff;stroke-width:2;stroke-miterlimit:10" d="M84 80c-3.3 0-6 2.7-6 6s2.7 6 6 6 6-2.7 6-6-3-6-6-6z"/></g><g class="dots-nav"><path class="dotsst dotsfill2" style="fill:#0092ff;opacity:1" d="M206.8 29c-3.3 0-6 2.7-6 6s2.7 6 6 6 6-2.7 6-6-2.7-6-6-6z"/><path class="dotsstro2" style="opacity:1;fill:none;stroke:#fff;stroke-width:2;stroke-miterlimit:10" d="M206.8 29c-3.3 0-6 2.7-6 6s2.7 6 6 6 6-2.7 6-6-2.7-6-6-6z"/></g><g class="dots-nav"><path class="dotsst dotsfill3" style="fill:#0092ff;opacity:1" d="M332 85c-3.3 0-6 2.7-6 6s2.7 6 6 6 6-2.7 6-6-3-6-6-6z"/><path class="dotsstro3" style="opacity:1;fill:none;stroke:#fff;stroke-width:2;stroke-miterlimit:10" d="M332 85c-3.3 0-6 2.7-6 6s2.7 6 6 6 6-2.7 6-6-3-6-6-6z"/></g><g class="dots-nav"><path class="dotsst dotsfill4" style="fill:#0092ff;opacity:1" d="M380 205c-3.3 0-6 2.7-6 6s2.7 6 6 6 6-2.7 6-6-3-6-6-6z"/><path class="dotsstro4" style="opacity:1;fill:none;stroke:#fff;stroke-width:2;stroke-miterlimit:10" d="M380 205c-3.3 0-6 2.7-6 6s2.7 6 6 6 6-2.7 6-6-3-6-6-6z"/></g><g class="dots-nav"><path class="dotsst dotsfill5" style="fill:#0092ff;opacity:1" d="M335 315c-3.3 0-6 2.7-6 6s2.7 6 6 6 6-2.7 6-6-1-6-6-6z"/><path class="dotsstro5" style="opacity:1;fill:none;stroke:#fff;stroke-width:2;stroke-miterlimit:10" d="M335 315c-3.3 0-6 2.7-6 6s2.7 6 6 6 6-2.7 6-6-1-6-6-6z"/></g><g class="dots-nav"><path class="dotsst dotsfill6" style="fill:#0092ff;opacity:1" d="M210 375c-3.3 0-6 2.7-6 6s2.7 6 6 6 6-2.7 6-6-1-6-6-6z"/><path class="dotsstro6" style="opacity:1;fill:none;stroke:#fff;stroke-width:2;stroke-miterlimit:10" d="M210 375c-3.3 0-6 2.7-6 6s2.7 6 6 6 6-2.7 6-6-1-6-6-6z"/></g><g class="dots-nav"><path class="dotsst dotsfill7" style="fill:#0092ff;opacity:1" d="M88 324c-3.3 0-6 2.7-6 6s2.7 6 6 6 6-2.7 6-6-2-6-6-6z"/><path class="dotsstro7" style="opacity:1;fill:none;stroke:#fff;stroke-width:2;stroke-miterlimit:10" d="M88 324c-3.3 0-6 2.7-6 6s2.7 6 6 6 6-2.7 6-6-2-6-6-6z"/></g></svg>